<svg xmlns="http://www.w3.org/2000/svg" viewBox="0 0 145 91"><defs><style>.cls-1{fill:#fff;}.cls-2{font-size:18px;font-family:MyriadPro-Regular, Myriad Pro;}</style></defs><title>Element 1</title><g id="Ebene_2" data-name="Ebene 2"><g id="Ebene_1-2" data-name="Ebene 1"><rect class="cls-1" x="51.5" y="0.5" width="41" height="41" rx="10.59" ry="10.59"/><path d="M81.91,1A10.1,10.1,0,0,1,92,11.09V30.91A10.1,10.1,0,0,1,81.91,41H62.09A10.1,10.1,0,0,1,52,30.91V11.09A10.1,10.1,0,0,1,62.09,1H81.91m0-1H62.09A11.09,11.09,0,0,0,51,11.09V30.91A11.09,11.09,0,0,0,62.09,42H81.91A11.09,11.09,0,0,0,93,30.91V11.09A11.09,11.09,0,0,0,81.91,0Z"/><rect class="cls-1" x="0.5" y="49.5" width="41" height="41" rx="10.59" ry="10.59"/><path d="M30.91,50A10.1,10.1,0,0,1,41,60.09V79.91A10.1,10.1,0,0,1,30.91,90H11.09A10.1,10.1,0,0,1,1,79.91V60.09A10.1,10.1,0,0,1,11.09,50H30.91m0-1H11.09A11.09,11.09,0,0,0,0,60.09V79.91A11.09,11.09,0,0,0,11.09,91H30.91A11.09,11.09,0,0,0,42,79.91V60.09A11.09,11.09,0,0,0,30.91,49Z"/><rect class="cls-1" x="103.5" y="49.5" width="41" height="41" rx="10.59" ry="10.59"/><path d="M133.91,50A10.1,10.1,0,0,1,144,60.09V79.91A10.1,10.1,0,0,1,133.91,90H114.09A10.1,10.1,0,0,1,104,79.91V60.09A10.1,10.1,0,0,1,114.09,50h19.82m0-1H114.09A11.09,11.09,0,0,0,103,60.09V79.91A11.09,11.09,0,0,0,114.09,91h19.82A11.09,11.09,0,0,0,145,79.91V60.09A11.09,11.09,0,0,0,133.91,49Z"/><rect class="cls-1" x="51.5" y="49.5" width="41" height="41" rx="10.59" ry="10.59"/><path d="M81.91,50A10.1,10.1,0,0,1,92,60.09V79.91A10.1,10.1,0,0,1,81.91,90H62.09A10.1,10.1,0,0,1,52,79.91V60.09A10.1,10.1,0,0,1,62.09,50H81.91m0-1H62.09A11.09,11.09,0,0,0,51,60.09V79.91A11.09,11.09,0,0,0,62.09,91H81.91A11.09,11.09,0,0,0,93,79.91V60.09A11.09,11.09,0,0,0,81.91,49Z"/><text class="cls-2" transform="translate(65.18 27.78)">W</text><text class="cls-2" transform="translate(119.18 75.78)">D</text><text class="cls-2" transform="translate(66.18 74.78)">S</text><text class="cls-2" transform="translate(15.18 73.78)">A</text></g></g></svg>