<svg xmlns="http://www.w3.org/2000/svg" viewBox="0 0 145 91"><defs><style>.cls-1{fill:#fff;}</style></defs><title>Element 2</title><g id="Ebene_2" data-name="Ebene 2"><g id="Ebene_1-2" data-name="Ebene 1"><rect class="cls-1" x="51.5" y="0.5" width="41" height="41" rx="10.59" ry="10.59"/><path d="M81.91,1A10.1,10.1,0,0,1,92,11.09V30.91A10.1,10.1,0,0,1,81.91,41H62.09A10.1,10.1,0,0,1,52,30.91V11.09A10.1,10.1,0,0,1,62.09,1H81.91m0-1H62.09A11.09,11.09,0,0,0,51,11.09V30.91A11.09,11.09,0,0,0,62.09,42H81.91A11.09,11.09,0,0,0,93,30.91V11.09A11.09,11.09,0,0,0,81.91,0Z"/><rect class="cls-1" x="0.5" y="48.5" width="41" height="41" rx="10.59" ry="10.59"/><path d="M30.91,49A10.1,10.1,0,0,1,41,59.09V78.91A10.1,10.1,0,0,1,30.91,89H11.09A10.1,10.1,0,0,1,1,78.91V59.09A10.1,10.1,0,0,1,11.09,49H30.91m0-1H11.09A11.09,11.09,0,0,0,0,59.09V78.91A11.09,11.09,0,0,0,11.09,90H30.91A11.09,11.09,0,0,0,42,78.91V59.09A11.09,11.09,0,0,0,30.91,48Z"/><rect class="cls-1" x="103.5" y="48.5" width="41" height="41" rx="10.59" ry="10.59"/><path d="M133.91,49A10.1,10.1,0,0,1,144,59.09V78.91A10.1,10.1,0,0,1,133.91,89H114.09A10.1,10.1,0,0,1,104,78.91V59.09A10.1,10.1,0,0,1,114.09,49h19.82m0-1H114.09A11.09,11.09,0,0,0,103,59.09V78.91A11.09,11.09,0,0,0,114.09,90h19.82A11.09,11.09,0,0,0,145,78.91V59.09A11.09,11.09,0,0,0,133.91,48Z"/><rect class="cls-1" x="51.5" y="49.5" width="41" height="41" rx="10.59" ry="10.59"/><path d="M81.91,50A10.1,10.1,0,0,1,92,60.09V79.91A10.1,10.1,0,0,1,81.91,90H62.09A10.1,10.1,0,0,1,52,79.91V60.09A10.1,10.1,0,0,1,62.09,50H81.91m0-1H62.09A11.09,11.09,0,0,0,51,60.09V79.91A11.09,11.09,0,0,0,62.09,91H81.91A11.09,11.09,0,0,0,93,79.91V60.09A11.09,11.09,0,0,0,81.91,49Z"/><path d="M72.63,12.86l5.05,4.62a1.72,1.72,0,0,1,.41.57,1.58,1.58,0,0,1,.14.67,1.56,1.56,0,0,1-.45,1.12,1.44,1.44,0,0,1-1.09.44,1.73,1.73,0,0,1-.67-.15,1.79,1.79,0,0,1-.57-.4l-1.22-1.26-.11,8.14a1.66,1.66,0,1,1-3.31,0l.11-8.14-1.44,1.22a2.06,2.06,0,0,1-.59.39,1.5,1.5,0,0,1-.6.12,1.28,1.28,0,0,1-1-.48,1.62,1.62,0,0,1-.4-1.12,1.59,1.59,0,0,1,.16-.68,1.63,1.63,0,0,1,.42-.54Z"/><path d="M72.58,79.25l-5.14-4.52a1.72,1.72,0,0,1-.42-.56,1.58,1.58,0,0,1-.15-.67,1.56,1.56,0,0,1,.43-1.13,1.44,1.44,0,0,1,1.08-.46,1.73,1.73,0,0,1,.68.13,1.79,1.79,0,0,1,.58.39l1.25,1.23,0-8.14a1.66,1.66,0,1,1,3.31,0l0,8.14,1.42-1.25a2.06,2.06,0,0,1,.58-.4,1.5,1.5,0,0,1,.6-.14,1.28,1.28,0,0,1,1,.46,1.62,1.62,0,0,1,.42,1.11,1.59,1.59,0,0,1-.15.68,1.63,1.63,0,0,1-.41.55Z"/><path d="M132.22,70.61l-4.59,5.08a1.72,1.72,0,0,1-.57.41,1.58,1.58,0,0,1-.67.14,1.56,1.56,0,0,1-1.12-.45,1.44,1.44,0,0,1-.45-1.08A1.73,1.73,0,0,1,125,74a1.79,1.79,0,0,1,.4-.58l1.25-1.23-8.14-.06a1.66,1.66,0,1,1,0-3.31l8.14.06-1.23-1.43a2.06,2.06,0,0,1-.39-.59,1.5,1.5,0,0,1-.13-.6,1.28,1.28,0,0,1,.48-1,1.62,1.62,0,0,1,1.11-.41,1.59,1.59,0,0,1,.68.15,1.63,1.63,0,0,1,.55.42Z"/><path d="M12.84,69.66l4.48-5.18a1.72,1.72,0,0,1,.56-.42,1.58,1.58,0,0,1,.67-.15,1.56,1.56,0,0,1,1.13.42,1.44,1.44,0,0,1,.47,1.07,1.73,1.73,0,0,1-.13.68,1.79,1.79,0,0,1-.38.59l-1.22,1.26,8.14-.11a1.66,1.66,0,1,1,0,3.31l-8.14.11,1.26,1.41a2.06,2.06,0,0,1,.4.58,1.5,1.5,0,0,1,.14.6,1.28,1.28,0,0,1-.46,1,1.62,1.62,0,0,1-1.11.43,1.59,1.59,0,0,1-.68-.14,1.63,1.63,0,0,1-.55-.41Z"/></g></g></svg>