<svg xmlns="http://www.w3.org/2000/svg" viewBox="0 0 499.3 324.71"><defs><style>.cls-1{fill:#fff;}.cls-2{font-size:21px;font-family:MyriadPro-Regular, Myriad Pro;}.cls-3{letter-spacing:-0.03em;}.cls-4{letter-spacing:0em;}.cls-14,.cls-5{letter-spacing:-0.01em;}.cls-6{letter-spacing:0em;}.cls-7{letter-spacing:-0.01em;}.cls-10,.cls-11,.cls-8,.cls-9{font-family:MyriadPro-BoldCond, Myriad Pro;font-weight:700;}.cls-8{letter-spacing:0em;}.cls-10{letter-spacing:0.01em;}.cls-11{letter-spacing:0.01em;}.cls-12{letter-spacing:1.5em;}.cls-13,.cls-14,.cls-15,.cls-16,.cls-17,.cls-18,.cls-19{font-family:MyriadPro-Cond, Myriad Pro;}.cls-13{letter-spacing:0em;}.cls-16{letter-spacing:0.01em;}.cls-17{letter-spacing:0em;}.cls-18{letter-spacing:-0.01em;}.cls-19{letter-spacing:0em;}.cls-20{letter-spacing:-0.05em;}.cls-21{letter-spacing:0.03em;}.cls-22{letter-spacing:-0.01em;}.cls-23{letter-spacing:-0.01em;}.cls-24{letter-spacing:-0.01em;}.cls-25{letter-spacing:-0.01em;}.cls-26{letter-spacing:-0.01em;}.cls-27{letter-spacing:-0.01em;}.cls-28{letter-spacing:-0.05em;}</style></defs><title>gameInstructions</title><g id="Ebene_2" data-name="Ebene 2"><g id="Ebene_1-2" data-name="Ebene 1"><path class="cls-1" d="M497.85,202.23,444.19,206c-4,.28-8.29.52-11.87-1.13-7-3.21-8-11.55-8.07-18.53l-.78-55c-.08-5.8-.18-11.71-2.2-17.23s-5.82-10.34-9.71-15c-29.15-34.8-66.16-64.37-108.18-86.44-8.47-4.45-17.31-8.65-27-10.41-10.74-2-21.84-.76-32.71.46-49.68,5.59-100,11.92-146,29.48-20,7.65-39.35,17.57-54.26,31.71-26,24.67-36,59.47-40,93.1-3,25.35-3.18,51.35,4.38,75.94s23.45,47.82,47.41,61.84c15.23,8.91,33,13.79,50.79,17.28,34.65,6.79,70.25,8.73,105.69,10.17,28.35,1.15,56.91,2,85-1.79,10.52-1.42,21.1-3.53,30.42-8.1,13.46-6.6,23.2-17.72,33.6-27.78,24.92-24.12,55.19-43.29,85.21-62.27,14.33-9.06,29.33-18.37,46.68-20.86"/><path d="M497.85,200.73l-37.76,2.64c-5.87.41-11.75.94-17.64,1.22-7.06.34-13.17-1.27-15.49-8.59-1.38-4.36-1.2-9.1-1.27-13.61l-.25-17.68c-.17-12.29-.15-24.6-.54-36.89-.32-10-3-18-9.15-25.94a274.25,274.25,0,0,0-20.48-23,357.51,357.51,0,0,0-47.16-40.39c-17.24-12.38-35.8-24.22-55.33-32.64C270.85-3.61,248,.61,225.08,3.35c-45.2,5.4-91,12.33-133.4,29.62C72.87,40.64,54.51,50.56,40.09,65.1,26.73,78.57,17.42,95.41,11.35,113.28,5,132.12,1.87,152.1.53,171.9-1,193.95.43,216.58,7.76,237.58a112.53,112.53,0,0,0,30,46.14c15.15,13.8,34,21.7,53.72,26.65,45.89,11.53,94.49,12.9,141.57,14.1,23.11.59,46.46.36,69.33-3.35,10.41-1.69,20.74-4.42,29.87-9.84,8.5-5,15.68-11.93,22.66-18.85a375.59,375.59,0,0,1,51-42.21c18.18-12.6,36.87-25.16,56.2-35.93,9.72-5.42,19.92-9.68,31-11.42,1.9-.3,1.09-3.19-.8-2.89-20.67,3.26-38.14,15.35-55.44,26.33-17.83,11.32-35.57,22.86-52.27,35.81a301.59,301.59,0,0,0-24.21,20.76c-7.49,7.2-14.52,15-22.83,21.25-18.15,13.73-41.82,15.72-63.81,17-23.2,1.3-46.46.32-69.65-.68s-46.39-2.33-69.42-5.28c-22.77-2.91-46.39-6.71-67.53-16a101.72,101.72,0,0,1-45.1-38.95C-1.13,223.66-.17,176.83,8.35,135.94c3.9-18.71,10.34-37.08,21-53C41.08,65.46,57.68,52.7,76.26,43.24,116.38,22.82,162.21,14.59,206.43,8.7,217.6,7.21,228.8,5.89,240,4.62c12.2-1.38,24.76-3.16,36.94-.76C288,6,298.16,11.44,308,16.81q13.63,7.44,26.61,16a358,358,0,0,1,49.59,39.34q10.92,10.38,20.9,21.69c7.51,8.52,15.26,17,16.51,28.74,2.37,22.34-.52,45.14,1.32,67.52.52,6.33,2.48,13.09,8.65,16,3.93,1.88,8.42,1.59,12.63,1.33,6-.37,11.93-.83,17.89-1.25l35.77-2.5c1.92-.13,1.93-3.13,0-3Z"/><text class="cls-2" transform="translate(74.78 91.24)"><tspan class="cls-3">W</tspan><tspan class="cls-4" x="17.07" y="0">el</tspan><tspan class="cls-5" x="32.55" y="0">c</tspan><tspan class="cls-6" x="41.83" y="0">ome </tspan><tspan class="cls-7" x="85.85" y="0">t</tspan><tspan x="92.67" y="0">o </tspan><tspan class="cls-8" x="108.65" y="0">P</tspan><tspan class="cls-9" x="118.19" y="0">upule </tspan><tspan class="cls-10" x="163.42" y="0">K</tspan><tspan class="cls-9" x="173.37" y="0">a Nahe</tspan><tspan class="cls-11" x="223.69" y="0">k</tspan><tspan class="cls-9" x="232.61" y="0">a</tspan><tspan class="cls-12" x="0" y="25.2">	</tspan><tspan x="36" y="25.2">the </tspan><tspan class="cls-13" x="69.58" y="25.2">C</tspan><tspan class="cls-14" x="77.33" y="25.2">r</tspan><tspan class="cls-15" x="82.41" y="25.2">a</tspan><tspan class="cls-16" x="90.05" y="25.2">z</tspan><tspan class="cls-15" x="96.9" y="25.2">y </tspan><tspan class="cls-17" x="107.46" y="25.2">S</tspan><tspan class="cls-15" x="115.1" y="25.2">na</tspan><tspan class="cls-18" x="131.25" y="25.2">k</tspan><tspan class="cls-15" x="138.37" y="25.2">e </tspan><tspan class="cls-19" x="149.29" y="25.2">G</tspan><tspan class="cls-15" x="158.55" y="25.2">ame</tspan><tspan class="cls-20" x="0" y="75.6">T</tspan><tspan class="cls-21" x="9.49" y="75.6">r</tspan><tspan x="16.88" y="75.6">y </tspan><tspan class="cls-5" x="31.23" y="75.6">t</tspan><tspan x="38.05" y="75.6">o win the game </tspan><tspan class="cls-22" x="178.43" y="75.6">b</tspan><tspan class="cls-6" x="190.24" y="75.6" xml:space="preserve">y  </tspan><tspan class="cls-23" x="209.03" y="75.6">a</tspan><tspan class="cls-24" x="218.98" y="75.6">v</tspan><tspan class="cls-6" x="228.88" y="75.6">oiding </tspan><tspan x="0" y="100.8">a</tspan><tspan class="cls-25" x="10.12" y="100.8">n</tspan><tspan class="cls-6" x="21.5" y="100.8">y </tspan><tspan class="cls-5" x="35.85" y="100.8">c</tspan><tspan x="45.13" y="100.8">ollision with the other pl</tspan><tspan class="cls-26" x="258.23" y="100.8">a</tspan><tspan class="cls-27" x="268.19" y="100.8">y</tspan><tspan x="277.87" y="100.8">e</tspan><tspan class="cls-28" x="288.39" y="100.8">r</tspan><tspan x="294.14" y="100.8">.</tspan><tspan class="cls-12" x="0" y="151.2" xml:space="preserve">		</tspan><tspan x="72" y="151.2">H</tspan><tspan class="cls-23" x="85.69" y="151.2">a</tspan><tspan class="cls-24" x="95.65" y="151.2">v</tspan><tspan x="105.54" y="151.2">e fun!</tspan></text></g></g></svg>